---
title: Handlers Design
---
classDiagram
    class ConfigGenerator {
        generate_config(project_path, model, prompt_path)
    }

    class DirenvGenerator {
        generate_direnv(project_path)
    }

    class ListModel {
        list_models()
    }

    class InstallModel {
        install_model(model: str)
    }

    class UnInstallModel {
        uninstall_model(model: str)
    }

    ConfigGenerator ..> Services
    DirenvGenerator ..> Services
    ListModel ..> Services
    InstallModel ..> Services
    UnInstallModel ..> Services

